<?xml version="1.0" encoding="UTF-8"?>
<svg xmlns="http://www.w3.org/2000/svg" xmlns:xlink="http://www.w3.org/1999/xlink" width="24px" height="24px" viewBox="0 0 24 24" version="1.1" fill="none">
<g id="surface1">
<path style=" stroke:none;fill-rule:nonzero;fill:rgb(0%,0%,0%);fill-opacity:1;" d="M 0 9.988281 C 0 15.496094 4.480469 19.972656 9.984375 19.972656 C 12.519531 19.972656 14.839844 19.019531 16.605469 17.457031 L 22.96875 23.820312 C 23.085938 23.9375 23.238281 23.996094 23.394531 23.996094 C 23.554688 23.996094 23.707031 23.9375 23.824219 23.820312 C 24.058594 23.585938 24.058594 23.207031 23.824219 22.96875 L 17.453125 16.605469 C 19.015625 14.84375 19.96875 12.527344 19.96875 9.988281 C 19.96875 4.480469 15.488281 0.00390625 9.984375 0.00390625 C 4.480469 0.00390625 0 4.480469 0 9.988281 Z M 18.765625 9.988281 C 18.765625 14.828125 14.824219 18.769531 9.984375 18.769531 C 5.144531 18.769531 1.203125 14.828125 1.203125 9.988281 C 1.203125 5.148438 5.144531 1.207031 9.984375 1.207031 C 14.824219 1.207031 18.765625 5.140625 18.765625 9.988281 Z M 18.765625 9.988281 "/>
</g>
</svg>
